HIERARCHY
ROOT Hips
{
	OFFSET 0.000000 0.000000 0.000000 
	CHANNELS 6 Xposition Yposition Zposition Yrotation Zrotation Xrotation 
	JOINT Lumbar
	{
		OFFSET 0.000000 0.000000 0.000000 
		CHANNELS 3 Zrotation Xrotation Yrotation
		JOINT Neck
		{
			OFFSET 0.000000 0.445665 0.000000 
			CHANNELS 3 Zrotation Xrotation Yrotation
			End Site
			{
				OFFSET 0.000000 0.227535 0.000000 
			}
		}
		JOINT RightShoulder
		{
			OFFSET 0.019635 0.377685 0.194865 
			CHANNELS 3 Zrotation Xrotation Yrotation
			JOINT RightElbow
			{
				OFFSET 0.000000 -0.243375 0.000000 
				CHANNELS 2 Zrotation Yrotation
				JOINT RightWrist
				{
					OFFSET 0.000000 -0.264825 0.000000 
					CHANNELS 2 Zrotation Xrotation
					End Site
					{
						OFFSET 0.006600 -0.176220 0.000990 
					}
				}
			}
		}
		JOINT LeftShoulder
		{
			OFFSET 0.019635 0.377685 -0.194865 
			CHANNELS 3 Zrotation Xrotation Yrotation
			JOINT LeftElbow
			{
				OFFSET 0.000000 -0.243375 0.000000 
				CHANNELS 2 Zrotation Yrotation
				JOINT LeftWrist
				{
					OFFSET 0.000000 -0.264825 0.000000 
					CHANNELS 2 Zrotation Xrotation
					End Site
					{
						OFFSET 0.006600 -0.176220 -0.000990 
					}
				}
			}
		}
	}
	JOINT RightHip
	{
		OFFSET 0.052140 -0.069960 0.075570 
		CHANNELS 3 Zrotation Xrotation Yrotation
		JOINT RightKnee
		{
			OFFSET 0.000000 -0.402270 0.000000 
			CHANNELS 1 Zrotation
			JOINT RightAnkle
			{
				OFFSET 0.000000 -0.404085 0.000000 
				CHANNELS 3 Zrotation Xrotation Yrotation
				End Site
				{
					OFFSET 0.204105 -0.089430 0.008415 
				}
			}
		}
	}
	JOINT LeftHip
	{
		OFFSET 0.052140 -0.069960 -0.075570 
		CHANNELS 3 Zrotation Xrotation Yrotation
		JOINT LeftKnee
		{
			OFFSET 0.000000 -0.402270 0.000000 
			CHANNELS 1 Zrotation
			JOINT LeftAnkle
			{
				OFFSET 0.000000 -0.404085 0.000000 
				CHANNELS 3 Zrotation Xrotation Yrotation
				End Site
				{
					OFFSET 0.204105 -0.089430 -0.008415 
				}
			}
		}
	}
}
MOTION
Frames: 28
Frame Time: 0.02
-0.742 -0.00724 -0.04184 264.61549 -65.66087 -0.7003 40.47479 1.31168 4.2278 6.33195 -1.78214 -2.11994 43.61169 -22.72366 49.55528 38.72757 26.54515 37.81073 -11.80206 41.05927 21.90712 -49.22815 45.84516 -20.36092 33.03632 14.50676 69.90889 6.70731 -17.37286 -13.95477 -6.85012 -2.44188 -3.43314 58.70393 17.64801 11.00826 -7.43142 -14.37164 3.61229 4.40754
-0.74219 -0.00709 -0.04089 265.00462 -66.15204 -0.3764 40.20173 1.23668 4.14864 6.21674 -1.84611 -2.11994 43.83836 -22.89915 50.05168 38.79817 25.84467 38.10429 -11.92091 41.02584 22.20118 -50.04559 46.02589 -18.57951 33.69519 15.23969 70.35589 6.53102 -17.7475 -13.95663 -6.84835 -2.40247 -3.4155 59.1447 17.53231 10.24906 -7.31987 -14.4474 3.62098 4.41578
-0.74232 -0.007 -0.0398 265.4507 -66.61383 -0.00942 39.93215 1.17658 4.06309 6.0999 -1.90958 -2.11994 43.90448 -22.86347 49.75944 38.78455 26.32257 38.1491 -11.80669 41.13251 22.45614 -51.08984 46.06245 -16.34954 34.5381 16.16275 70.76528 6.32831 -18.20223 -13.97365 -6.83945 -2.35552 -3.39415 59.5337 17.40565 9.30201 -7.18628 -14.53334 3.63344 4.4266
-0.74248 -0.00688 -0.03875 265.86922 -67.08624 0.33768 39.66313 1.11063 3.98245 5.98487 -1.97346 -2.11994 44.04967 -22.92977 49.85612 38.80585 26.21751 38.31207 -11.80838 41.17321 22.72045 -52.00913 46.16035 -14.3588 35.2789 16.99001 71.18816 6.14022 -18.60007 -13.98368 -6.83396 -2.31394 -3.37547 59.9429 17.28439 8.47471 -7.06389 -14.61228 3.64333 4.43569
-0.74265 -0.00676 -0.0378 266.29509 -67.57149 0.68614 39.38387 1.04097 3.89277 5.86524 -2.03674 -2.11994 44.18412 -22.98401 49.87931 38.84045 26.23112 38.47534 -11.78329 41.22547 23.01969 -53.02173 46.27342 -12.21348 36.10348 17.85976 71.62824 5.94077 -19.08593 -13.99402 -6.82785 -2.2639 -3.35258 60.36767 17.16108 7.50099 -6.93501 -14.70153 3.6569 4.44719
-0.74278 -0.00665 -0.0366 266.71977 -68.02169 1.04246 39.12712 0.98252 3.82037 5.7553 -2.10107 -2.11994 44.29656 -23.00717 49.84683 38.82636 26.30883 38.56992 -11.75274 41.28596 23.23557 -53.89286 46.31885 -10.28833 36.79214 18.68324 72.02169 5.75852 -19.40677 -14.00759 -6.82127 -2.22978 -3.33759 60.74718 17.03942 6.78748 -6.81717 -14.77141 3.6637 4.45426
-0.7428 -0.00655 -0.03481 267.1176 -68.3918 1.40316 38.93309 0.95105 3.80044 5.66683 -2.16835 -2.11994 44.39273 -23.00691 49.85537 38.71398 26.27527 38.54206 -11.76367 41.33785 23.24924 -54.32509 46.24517 -9.04755 37.09483 19.35525 72.30823 5.63418 -19.25475 -14.0233 -6.81563 -2.24126 -3.34547 61.01591 16.92697 6.8462 -6.71373 -14.78727 3.65049 4.44837
-0.74278 -0.00646 -0.03276 267.51323 -68.72547 1.77093 38.76146 0.93034 3.79785 5.58921 -2.23662 -2.11994 44.46898 -22.97862 49.8268 38.5526 26.27742 38.44901 -11.77504 41.39228 23.17679 -54.60558 46.10223 -8.05041 37.24683 19.96981 72.54611 5.52745 -18.93401 -14.04225 -6.80964 -2.26898 -3.36138 61.24195 16.8166 7.17179 -6.62973 -14.78263 3.63039 4.43791
-0.74277 -0.00636 -0.0308 267.91686 -69.06994 2.14051 38.57897 0.90491 3.78505 5.51019 -2.30452 -2.11994 44.54916 -22.9547 49.80634 38.40415 26.27454 38.37916 -11.78429 41.44357 23.13263 -54.95095 45.97173 -6.96386 37.4459 20.59557 72.79856 5.41015 -18.68773 -14.06177 -6.80353 -2.28953 -3.37359 61.48428 16.70363 7.37085 -6.54605 -14.78639 3.61364 4.42956
-0.74278 -0.00627 -0.02897 268.29569 -69.43909 2.49259 38.39975 0.87941 3.78091 5.41596 -2.37235 -2.11994 44.64668 -22.96009 49.79684 38.29342 26.26296 38.32996 -11.79376 41.50872 23.13482 -55.3221 45.92024 -5.77144 37.74503 21.29081 73.08382 5.30266 -18.45047 -14.07339 -6.79848 -2.30934 -3.38606 61.73146 16.59586 7.58688 -6.40776 -14.79545 3.59603 4.42117
-0.74274 -0.00616 -0.02681 268.72147 -69.74681 2.87949 38.21859 0.85624 3.76409 5.35633 -2.44023 -2.11994 44.70407 -22.89908 49.76512 38.09202 26.26425 38.22316 -11.8059 41.54306 23.01806 -55.59974 45.68488 -4.8635 37.79353 21.82537 73.28682 5.17937 -18.15728 -14.10181 -6.79106 -2.33414 -3.3997 61.96722 16.47965 7.83166 -6.40716 -14.78711 3.57864 4.41174
-0.74259 -0.00601 -0.02383 269.30538 -69.90864 3.38364 38.03013 0.83821 3.69876 5.38669 -2.51066 -2.11994 44.66679 -22.67457 49.69032 37.66641 26.27716 37.99066 -11.82665 41.496 22.61474 -55.65827 45.00073 -4.68597 37.21941 21.92645 73.29849 5.0076 -17.71457 -14.17756 -6.77889 -2.37333 -3.41677 62.11283 16.32455 8.10658 -6.61941 -14.74672 3.56218 4.40042
-0.74239 -0.00585 -0.02051 269.93039 -70.007 3.91769 37.83827 0.82169 3.62217 5.45193 -2.58055 -2.11994 44.5883 -22.3833 49.59802 37.14926 26.29773 37.69884 -11.85175 41.41565 22.09074 -55.62374 44.12724 -4.79057 36.39094 21.86672 73.22431 4.8197 -17.22652 -14.26969 -6.7641 -2.41628 -3.43439 62.26194 16.16366 8.39933 -7.00004 -14.68693 3.54617 4.38809
-0.74221 -0.00569 -0.01732 270.51885 -70.12522 4.42336 37.6456 0.80369 3.55636 5.50323 -2.64899 -2.11994 44.5223 -22.11444 49.50965 36.66489 26.32061 37.42589 -11.87414 41.3479 21.60884 -55.63281 43.31313 -4.76181 35.65697 21.88322 73.17451 4.63949 -16.78425 -14.35309 -6.74939 -2.45446 -3.45027 62.45455 16.0155 8.67414 -7.4103 -14.62941 3.53114 4.37652
-0.74207 -0.00553 -0.01423 271.18562 -70.28126 4.99342 37.46359 0.78995 3.46582 5.54729 -2.72482 -2.11994 44.4826 -21.87584 49.43039 36.21508 26.32605 37.19092 -11.8963 41.29384 21.17872 -55.64224 42.60739 -4.75148 35.0081 21.88798 73.18668 4.4578 -16.23502 -14.44206 -6.73925 -2.50574 -3.47251 62.45376 15.82519 8.99901 -7.37299 -14.60086 3.51188 4.36413
-0.74181 -0.00537 -0.01086 271.69542 -70.34247 5.43427 37.25835 0.7669 3.42567 5.61401 -2.78488 -2.11994 44.37766 -21.56138 49.3362 35.67336 26.36269 36.85579 -11.92401 41.19974 20.61193 -55.61695 41.63401 -4.78107 34.12202 21.87546 73.04766 4.27586 -15.89355 -14.52324 -6.71909 -2.5309 -3.48179 62.85905 15.72073 9.22121 -8.30773 -14.50508 3.50036 4.35249
-0.74133 -0.0052 -0.00691 271.79133 -70.1697 5.52769 36.98942 0.72334 3.51237 5.7402 -2.80337 -2.11994 44.10948 -21.03076 49.1371 34.89037 26.56067 36.31828 -11.928 41.03269 19.70939 -55.63743 39.95153 -4.74379 32.65115 21.88871 72.53177 4.09109 -16.19352 -14.57909 -6.67092 -2.47881 -3.45297 64.36757 15.85921 9.14794 -11.87614 -14.25133 3.52135 4.35001
-0.74071 -0.00505 -0.00268 271.72142 -69.90146 5.48607 36.69748 0.66934 3.65299 5.88733 -2.80552 -2.11994 43.77474 -20.42987 48.93385 34.02004 26.79217 35.66581 -11.94182 40.82045 18.67223 -55.60502 38.01066 -4.76679 30.94625 21.88248 71.86285 3.90786 -16.69486 -14.62644 -6.61292 -2.40101 -3.41145 66.28659 16.08325 8.97108 -16.41202 -13.92719 3.54826 4.34721
-0.7401 -0.0049 0.00148 271.70915 -69.66915 5.49631 36.41585 0.61629 3.77857 6.0208 -2.81413 -2.11994 43.46765 -19.8773 48.78075 33.19654 26.93583 35.03402 -11.97954 40.61019 17.68849 -55.51925 36.19789 -4.81813 29.34816 21.86503 71.25187 3.7276 -17.06714 -14.67763 -6.56007 -2.33767 -3.37716 68.03107 16.26544 8.84501 -20.51936 -13.6194 3.56483 4.3399
-0.73974 -0.0047 0.00539 271.7768 -69.4665 5.55106 36.13356 0.57894 3.86339 6.17141 -2.8274 -2.11994 43.17493 -19.25609 48.43427 32.34008 27.31627 34.55555 -11.90883 40.4792 16.73088 -55.75571 34.32924 -4.59972 27.75275 21.93306 70.68853 3.53052 -17.59442 -14.72973 -6.5043 -2.2628 -3.33681 69.731 16.46074 8.70306 -24.61269 -13.37379 3.61278 4.35157
-0.7388 -0.00461 0.0099 271.63346 -69.17971 5.47648 35.8487 0.50684 4.04658 6.29283 -2.82631 -2.11994 42.83091 -18.75841 48.47597 31.53225 27.29923 33.70343 -12.05219 40.17021 15.6914 -55.31118 32.52334 -5.00953 26.08251 21.81253 69.98868 3.37 -17.84958 -14.7774 -6.45225 -2.20576 -3.30599 71.61354 16.64816 8.57059 -28.92873 -12.98615 3.59796 4.32445
-0.7363 -0.00477 0.01579 270.98642 -68.68838 5.11277 35.55021 0.33765 4.48336 6.31158 -2.79592 -2.11994 42.41288 -18.64937 49.70429 30.88474 25.39605 32.099 -12.90708 39.40186 14.43445 -52.98487 30.90961 -6.63824 24.41822 21.24658 68.96643 3.30185 -17.28667 -14.81699 -6.41355 -2.20431 -3.30496 73.96493 16.80098 8.47527 -33.91806 -12.1898 3.39819 4.18337
-0.73321 -0.00504 0.02232 270.12506 -68.11504 4.61672 35.25269 0.13465 5.01789 6.30339 -2.75025 -2.11994 41.93542 -18.66104 51.29863 30.28884 23.21762 30.0854 -13.95576 38.45149 13.10513 -49.97728 29.3769 -8.97324 22.66499 20.48035 67.80887 3.27191 -16.44783 -14.85172 -6.37883 -2.22152 -3.31382 76.47338 16.94137 8.39351 -39.04505 -11.25944 3.13692 4.00456
-0.73037 -0.00529 0.02868 269.33686 -67.57683 4.15836 34.96207 -0.05065 5.51131 6.31828 -2.70766 -2.11994 41.45266 -18.59876 52.65551 29.66668 21.70201 28.08247 -14.83302 37.57161 11.82518 -47.29264 27.83748 -11.33236 20.84425 19.75891 66.70303 3.23014 -15.74522 -14.88753 -6.34187 -2.23035 -3.31801 78.86779 17.08228 8.31758 -43.91104 -10.4125 2.9105 3.84758
-0.72761 -0.00541 0.03449 268.64654 -67.0448 3.7907 34.63762 -0.24673 5.99398 6.28753 -2.68166 -2.11994 41.10698 -18.61743 54.3274 29.05308 17.99848 26.77633 -16.05571 36.74445 10.46987 -44.55358 26.16294 -12.3025 19.44612 19.22708 65.63487 3.16564 -14.99822 -14.92876 -6.3064 -2.23852 -3.32277 81.45829 17.24812 8.19619 -49.63692 -9.46756 2.65524 3.67086
-0.72453 -0.00584 0.04163 267.70194 -66.48102 3.20372 34.3867 -0.42757 6.51984 6.34595 -2.61661 -2.11994 40.45873 -18.49352 55.41144 28.43528 18.68449 23.97233 -16.61335 35.76147 9.25738 -41.76202 24.79105 -16.25019 17.18075 18.25901 64.45584 3.15681 -14.28265 -14.95645 -6.26889 -2.25201 -3.32851 83.67026 17.35757 8.16303 -53.6066 -8.69641 2.44529 3.52627
-0.72075 -0.00698 0.05208 266.12467 -65.85675 2.05233 34.31784 -0.56401 7.15473 6.65027 -2.4576 -2.11994 39.02265 -17.97932 54.9495 27.79292 32.44093 16.70785 -15.21318 34.42289 8.44773 -39.03586 24.24843 -28.95691 12.2755 16.08497 63.02497 3.29779 -13.65663 -14.95806 -6.225 -2.28302 -3.33769 84.81146 17.31725 8.47056 -52.55924 -8.43301 2.37613 3.47992
-0.71665 -0.00845 0.06387 264.29827 -65.20314 0.68535 34.32734 -0.68292 7.82632 7.04631 -2.2586 -2.11994 37.27869 -17.31317 53.85733 27.14588 50.46418 8.02767 -13.15069 32.92923 7.78719 -36.27445 24.00592 -44.50433 6.55029 13.48895 61.48479 3.49188 -13.08092 -14.94425 -6.17906 -2.31775 -3.34709 85.56022 17.21964 8.85191 -49.75938 -8.35011 2.3546 3.46717
